<?xml version="1.0" encoding="UTF-8"?>
<svg id="Capa_1" data-name="Capa 1" xmlns="http://www.w3.org/2000/svg" xmlns:xlink="http://www.w3.org/1999/xlink" viewBox="0 0 3829 851">
  <defs>
    <style>
      .cls-1 {
        <!-- fill: #606060; -->
        fill: none ;
      }

      .cls-1, .cls-2, .cls-3, .cls-4 {
        stroke-width: 0px;
      }

      .cls-2 {
        fill: none;
      }

      .cls-3 {
        fill: #0cc;
      }

      .cls-5 {
        clip-path: url(#clippath-1);
      }

      .cls-4 {
        fill: #fff;
      }

      .cls-6 {
        clip-path: url(#clippath);
      }
    </style>
    <clipPath id="clippath">
      <rect class="cls-2" width="3829" height="851"/>
    </clipPath>
    <clipPath id="clippath-1">
      <rect class="cls-2" x="-234" y="-233" width="4366" height="1407"/>
    </clipPath>
  </defs>
  <g class="cls-6">
    <g class="cls-5">
      <rect class="cls-1" x="-3036" y="-849" width="9895" height="2571"/>
      <g>
        <path class="cls-4" d="m645.5,809.4L213.9,365.41v474.16H16V169.95C16,62.57,72.84,19.14,134.95,19.14c26.32,0,52.63,7.24,87.37,43.44l431.6,443.99V32.41h198.95v668.4c0,107.38-56.84,152.02-120,152.02-27.37,0-53.69-7.24-87.37-43.43Z"/>
        <path class="cls-4" d="m1251.35,839.56l114.44-207.52h153.8c36.62,0,79.65,0,108.95,2.41-16.48-28.96-42.11-78.42-62.26-117.03l-109.86-213.55-287.47,535.69h-224.3L1337.41,109.63c25.63-47.05,63.17-90.49,122.68-90.49s94.3,39.82,120.85,90.49l382.68,729.93h-712.26Z"/>
        <path class="cls-4" d="m2682.67,809.4l-431.6-444v474.16h-197.9V169.95c0-107.38,56.84-150.81,118.95-150.81,26.32,0,52.63,7.24,87.37,43.44l431.6,443.99V32.41h198.96v668.4c0,107.38-56.85,152.02-120,152.02-27.38,0-53.69-7.24-87.37-43.43Z"/>
        <path class="cls-2" d="m3707.43,616.49c.27.3.55.59.82.88,10.54-1.82,24.29-2.46,38.99,1.79,4.35.72,8.63,1.71,12.85,2.92-5.5-1.95-11.21-3.43-17.09-4.38-13.51-4-26.18-3.07-35.57-1.22Z"/>
        <path class="cls-4" d="m3733.18,251.07c-17.48,6.68-35.78,9.97-55.19,5.85-.55.55-1.09,1.1-1.64,1.64-2.58,2.59-5.17,5.2-7.77,7.81-10.66,11.19-21.63,22.11-32.55,33.06-11.97,12.33-23.81,24.78-35.21,37.32-.39.43-.78.84-1.17,1.26,16.23,29.21,25.5,62.79,25.5,98.51s-9.28,69.35-25.53,98.57l38.81,39.99c4.22,4.26,8.72,8.69,13.08,12.98l.11.11c9.2,9.06,18.62,18.33,27.8,28.33.56.61,10.09-1.39,11.41-1.46,4.64-.26,9.3-.12,13.9.5,10.23,1.37,20.16,4.15,29.95,7.35,2.38.78,28.2,11.35,27.36,12.79,8.58-14.65,16.25-29.86,22.92-45.64,20.59-48.67,31.03-100.32,31.03-153.51s-10.44-104.84-31.03-153.51c-6.74-15.94-14.5-31.3-23.18-46.09-3.45,2.24-7,4.28-10.64,6.11-5.9,2.98-11.89,5.71-17.98,8.04Z"/>
        <path class="cls-4" d="m3572.94,716.04c-1.84-1.96-3.49-3.83-4.99-5.54-1.12-1.27-2.08-2.36-2.93-3.27l-59.22-60.65-14.99-15.61c-28.29,13.65-59.98,21.31-93.43,21.31-118.98,0-215.78-96.8-215.78-215.78s96.8-215.78,215.78-215.78c33.15,0,64.56,7.53,92.65,20.94,1.59-1.58,3.18-3.15,4.76-4.7,2.87-2.83,6.12-6.03,9.2-9.12,5.42-5.65,10.94-11.47,16.29-17.1l.24-.25c16.93-17.84,34.39-36.26,53.01-53.88-.01-.06-.02-.12-.04-.18-5.91-30.21.3-60.9,17.49-86.42.7-1.04,1.43-2.07,2.16-3.08-10.72-5.68-21.7-10.93-32.95-15.69-51.62-21.83-106.4-32.91-162.81-32.91s-111.19,11.07-162.81,32.91c-49.81,21.07-94.52,51.21-132.89,89.58-38.37,38.37-68.51,83.09-89.58,132.89-21.83,51.62-32.91,106.4-32.91,162.81s11.07,111.19,32.91,162.81c21.07,49.81,51.21,94.52,89.58,132.89,38.37,38.37,83.09,68.51,132.89,89.58,51.62,21.83,106.4,32.91,162.81,32.91s111.19-11.07,162.81-32.91c11.5-4.86,22.71-10.23,33.65-16.06-7.04-9.55-12.68-20.21-16.58-31.53-6.53-18.98-7.99-39.21-4.33-58.15Z"/>
        <path class="cls-3" d="m3799.06,734.79c-.69-24.68-10.02-48.51-26.28-67.12-10.66-12.2-24.43-21.8-39.58-27.86-15.82-6.34-34-10.44-51.03-8.26-3.74.48-7.44,1.21-11.09,2.16-10.83-12.41-22.32-23.72-33.48-34.7l-.11-.11c-4.41-4.34-8.96-8.82-13.26-13.17l-103.87-102.63c5.76-14.45,8.93-30.21,8.93-46.71,0-15.29-2.72-29.95-7.7-43.51,0,0,59.4-59.07,64.68-64.86,24.39-26.8,50.61-53.15,75.97-78.64,3.13-3.15,6.26-6.29,9.39-9.44.81-.82,15.78,2.59,17.99,2.69,6.61.31,13.25-.14,19.75-1.41,50.57-9.87,94.07-54.79,89.45-108.87-2.13-24.89-11.29-47.22-26.52-64.59-15.3-17.46-35.79-28.92-59.3-33.19-15.61-3.82-31.05-3.34-45.92,1.43-25.22,6.1-47.02,21.23-61.46,42.67-15.08,22.39-20.52,49.31-15.34,75.82.88,4.49,1.12,6.99,1.17,8.3-.55.45-1.1.92-1.61,1.4-19.72,18.39-38.24,37.91-56.16,56.8l-.24.25c-5.39,5.68-10.95,11.55-16.43,17.25-3.16,3.17-74.56,77.91-74.56,77.91-12.41-4.08-25.66-6.29-39.44-6.29-69.75,0-126.29,56.54-126.29,126.29s56.54,126.29,126.29,126.29c12.79,0,25.13-1.91,36.77-5.44l49.56,49.56c0,.31.11.42.31.31l29.24,30.46,59.25,60.68c1.01,1.08,2.07,2.28,3.31,3.69,2.87,3.26,6.04,6.86,9.95,10.41-5.17,18.48-4.44,38.94,2.13,58.02,6.83,19.83,19.69,37.33,36.24,49.34,18.53,14.6,39.1,22,61.14,22,7.13,0,14.44-.8,21.76-2.37,23.91-4.03,45.93-16.85,62.05-36.15,16.38-19.6,25.03-43.9,24.34-68.4Z"/>
      </g>
    </g>
  </g>
</svg>